<svg xmlns="http://www.w3.org/2000/svg" width="1600" height="700" viewBox="0 0 1600 700">
  <defs>
    <linearGradient id="g" x1="0" y1="0" x2="1" y2="1">
      <stop offset="0" stop-color="#3b82f6" stop-opacity="0.18"/>
      <stop offset="1" stop-color="#f59e0b" stop-opacity="0.18"/>
    </linearGradient>
    <radialGradient id="r" cx="50%" cy="50%" r="60%">
      <stop offset="0" stop-color="#ffffff" stop-opacity="0.14"/>
      <stop offset="1" stop-color="#ffffff" stop-opacity="0"/>
    </radialGradient>
    <filter id="blur" x="-20%" y="-20%" width="140%" height="140%">
      <feGaussianBlur stdDeviation="28"/>
    </filter>
  </defs>

  <rect width="1600" height="700" fill="url(#g)"/>

  <g filter="url(#blur)">
    <circle cx="260" cy="180" r="190" fill="#3b82f6" fill-opacity="0.20"/>
    <circle cx="1320" cy="150" r="230" fill="#f59e0b" fill-opacity="0.20"/>
    <circle cx="900" cy="520" r="260" fill="#3b82f6" fill-opacity="0.14"/>
  </g>

  <g opacity="0.65">
    <path d="M120 560 C 280 500, 360 620, 520 560 S 760 520, 920 560 1160 640, 1320 580 1480 520, 1580 560" fill="none" stroke="#ffffff" stroke-opacity="0.18" stroke-width="2"/>
    <path d="M60 430 C 240 380, 320 470, 500 420 S 760 360, 940 420 1180 520, 1360 450 1520 380, 1640 420" fill="none" stroke="#ffffff" stroke-opacity="0.12" stroke-width="2"/>
  </g>

  <rect width="1600" height="700" fill="url(#r)"/>
</svg>
